<svg width="356" height="435" viewBox="0 0 356 435" fill="none" xmlns="http://www.w3.org/2000/svg">
<g clip-path="url(#clip0_1627_2097)">
<path d="M-0.00167847 435H50.8555L50.8555 0L-0.00167847 435Z" fill="url(#paint0_linear_1627_2097)"/>
<path d="M50.8577 435H101.715L101.715 0L50.8577 435Z" fill="url(#paint1_linear_1627_2097)"/>
<path d="M101.713 435H152.57L152.57 0L101.713 435Z" fill="url(#paint2_linear_1627_2097)"/>
<path d="M152.573 435H203.43L203.43 0L152.573 435Z" fill="url(#paint3_linear_1627_2097)"/>
<path d="M203.428 435H254.285L254.285 0L203.428 435Z" fill="url(#paint4_linear_1627_2097)"/>
<path d="M254.287 435H305.145V0L254.287 435Z" fill="url(#paint5_linear_1627_2097)"/>
<path d="M305.143 435H356V0L305.143 435Z" fill="url(#paint6_linear_1627_2097)"/>
</g>
<defs>
<linearGradient id="paint0_linear_1627_2097" x1="-11.2246" y1="-0.000261031" x2="102.456" y2="10.7887" gradientUnits="userSpaceOnUse">
<stop offset="0.152213" stop-opacity="0"/>
<stop offset="1" stop-color="#565656"/>
</linearGradient>
<linearGradient id="paint1_linear_1627_2097" x1="39.6348" y1="-0.000261031" x2="153.315" y2="10.7887" gradientUnits="userSpaceOnUse">
<stop offset="0.152213" stop-opacity="0"/>
<stop offset="1" stop-color="#565656"/>
</linearGradient>
<linearGradient id="paint2_linear_1627_2097" x1="90.4902" y1="-0.000261031" x2="204.171" y2="10.7887" gradientUnits="userSpaceOnUse">
<stop offset="0.152213" stop-opacity="0"/>
<stop offset="1" stop-color="#565656"/>
</linearGradient>
<linearGradient id="paint3_linear_1627_2097" x1="141.35" y1="-0.000261031" x2="255.03" y2="10.7887" gradientUnits="userSpaceOnUse">
<stop offset="0.152213" stop-opacity="0"/>
<stop offset="1" stop-color="#565656"/>
</linearGradient>
<linearGradient id="paint4_linear_1627_2097" x1="192.205" y1="-0.000261031" x2="305.885" y2="10.7887" gradientUnits="userSpaceOnUse">
<stop offset="0.152213" stop-opacity="0"/>
<stop offset="1" stop-color="#565656"/>
</linearGradient>
<linearGradient id="paint5_linear_1627_2097" x1="243.064" y1="-0.000261031" x2="356.745" y2="10.7887" gradientUnits="userSpaceOnUse">
<stop offset="0.152213" stop-opacity="0"/>
<stop offset="1" stop-color="#565656"/>
</linearGradient>
<linearGradient id="paint6_linear_1627_2097" x1="293.92" y1="-0.000261031" x2="407.6" y2="10.7887" gradientUnits="userSpaceOnUse">
<stop offset="0.152213" stop-opacity="0"/>
<stop offset="1" stop-color="#565656"/>
</linearGradient>
<clipPath id="clip0_1627_2097">
<rect width="356" height="435" rx="32" fill="white"/>
</clipPath>
</defs>
</svg>
