<svg width="320" height="435" viewBox="0 0 320 435" fill="none" xmlns="http://www.w3.org/2000/svg">
<g clip-path="url(#clip0_1559_3437)">
<rect width="320" height="435" rx="32" fill="#252525"/>
<path d="M21.3333 435H0L0 0L21.3333 435Z" fill="url(#paint0_linear_1559_3437)"/>
<path d="M42.6654 435H21.332L21.332 0L42.6654 435Z" fill="url(#paint1_linear_1559_3437)"/>
<path d="M64.0013 435H42.668L42.668 0L64.0013 435Z" fill="url(#paint2_linear_1559_3437)"/>
<path d="M85.3333 435H64L64 0L85.3333 435Z" fill="url(#paint3_linear_1559_3437)"/>
<path d="M106.665 435H85.332L85.332 0L106.665 435Z" fill="url(#paint4_linear_1559_3437)"/>
<path d="M128.001 435H106.668L106.668 0L128.001 435Z" fill="url(#paint5_linear_1559_3437)"/>
<path d="M149.333 435H128L128 0L149.333 435Z" fill="url(#paint6_linear_1559_3437)"/>
<path d="M170.665 435H149.332L149.332 0L170.665 435Z" fill="url(#paint7_linear_1559_3437)"/>
<path d="M192.001 435H170.668L170.668 0L192.001 435Z" fill="url(#paint8_linear_1559_3437)"/>
<path d="M213.333 435H192L192 0L213.333 435Z" fill="url(#paint9_linear_1559_3437)"/>
<path d="M234.665 435H213.332L213.332 0L234.665 435Z" fill="url(#paint10_linear_1559_3437)"/>
<path d="M256.001 435H234.668L234.668 0L256.001 435Z" fill="url(#paint11_linear_1559_3437)"/>
<path d="M277.333 435H256L256 0L277.333 435Z" fill="url(#paint12_linear_1559_3437)"/>
<path d="M298.665 435H277.332V0L298.665 435Z" fill="url(#paint13_linear_1559_3437)"/>
<path d="M320.001 435H298.668V0L320.001 435Z" fill="url(#paint14_linear_1559_3437)"/>
</g>
<defs>
<linearGradient id="paint0_linear_1559_3437" x1="26.0411" y1="-0.000261031" x2="-21.9984" y2="1.91223" gradientUnits="userSpaceOnUse">
<stop offset="0.152213" stop-opacity="0"/>
<stop offset="1" stop-color="#565656"/>
</linearGradient>
<linearGradient id="paint1_linear_1559_3437" x1="47.3731" y1="-0.000261031" x2="-0.666407" y2="1.91223" gradientUnits="userSpaceOnUse">
<stop offset="0.152213" stop-opacity="0"/>
<stop offset="1" stop-color="#565656"/>
</linearGradient>
<linearGradient id="paint2_linear_1559_3437" x1="68.7091" y1="-0.000261031" x2="20.6695" y2="1.91223" gradientUnits="userSpaceOnUse">
<stop offset="0.152213" stop-opacity="0"/>
<stop offset="1" stop-color="#565656"/>
</linearGradient>
<linearGradient id="paint3_linear_1559_3437" x1="90.0411" y1="-0.000261031" x2="42.0016" y2="1.91223" gradientUnits="userSpaceOnUse">
<stop offset="0.152213" stop-opacity="0"/>
<stop offset="1" stop-color="#565656"/>
</linearGradient>
<linearGradient id="paint4_linear_1559_3437" x1="111.373" y1="-0.000261031" x2="63.3336" y2="1.91223" gradientUnits="userSpaceOnUse">
<stop offset="0.152213" stop-opacity="0"/>
<stop offset="1" stop-color="#565656"/>
</linearGradient>
<linearGradient id="paint5_linear_1559_3437" x1="132.709" y1="-0.000261031" x2="84.6695" y2="1.91223" gradientUnits="userSpaceOnUse">
<stop offset="0.152213" stop-opacity="0"/>
<stop offset="1" stop-color="#565656"/>
</linearGradient>
<linearGradient id="paint6_linear_1559_3437" x1="154.041" y1="-0.000261031" x2="106.002" y2="1.91223" gradientUnits="userSpaceOnUse">
<stop offset="0.152213" stop-opacity="0"/>
<stop offset="1" stop-color="#565656"/>
</linearGradient>
<linearGradient id="paint7_linear_1559_3437" x1="175.373" y1="-0.000261031" x2="127.334" y2="1.91223" gradientUnits="userSpaceOnUse">
<stop offset="0.152213" stop-opacity="0"/>
<stop offset="1" stop-color="#565656"/>
</linearGradient>
<linearGradient id="paint8_linear_1559_3437" x1="196.709" y1="-0.000261031" x2="148.67" y2="1.91223" gradientUnits="userSpaceOnUse">
<stop offset="0.152213" stop-opacity="0"/>
<stop offset="1" stop-color="#565656"/>
</linearGradient>
<linearGradient id="paint9_linear_1559_3437" x1="218.041" y1="-0.000261031" x2="170.002" y2="1.91223" gradientUnits="userSpaceOnUse">
<stop offset="0.152213" stop-opacity="0"/>
<stop offset="1" stop-color="#565656"/>
</linearGradient>
<linearGradient id="paint10_linear_1559_3437" x1="239.373" y1="-0.000261031" x2="191.334" y2="1.91223" gradientUnits="userSpaceOnUse">
<stop offset="0.152213" stop-opacity="0"/>
<stop offset="1" stop-color="#565656"/>
</linearGradient>
<linearGradient id="paint11_linear_1559_3437" x1="260.709" y1="-0.000261031" x2="212.67" y2="1.91223" gradientUnits="userSpaceOnUse">
<stop offset="0.152213" stop-opacity="0"/>
<stop offset="1" stop-color="#565656"/>
</linearGradient>
<linearGradient id="paint12_linear_1559_3437" x1="282.041" y1="-0.000261031" x2="234.002" y2="1.91223" gradientUnits="userSpaceOnUse">
<stop offset="0.152213" stop-opacity="0"/>
<stop offset="1" stop-color="#565656"/>
</linearGradient>
<linearGradient id="paint13_linear_1559_3437" x1="303.373" y1="-0.000261031" x2="255.334" y2="1.91223" gradientUnits="userSpaceOnUse">
<stop offset="0.152213" stop-opacity="0"/>
<stop offset="1" stop-color="#565656"/>
</linearGradient>
<linearGradient id="paint14_linear_1559_3437" x1="324.709" y1="-0.000261031" x2="276.67" y2="1.91223" gradientUnits="userSpaceOnUse">
<stop offset="0.152213" stop-opacity="0"/>
<stop offset="1" stop-color="#565656"/>
</linearGradient>
<clipPath id="clip0_1559_3437">
<rect width="320" height="435" rx="32" fill="white"/>
</clipPath>
</defs>
</svg>
