<svg width="356" height="435" viewBox="0 0 356 435" fill="none" xmlns="http://www.w3.org/2000/svg">
<g clip-path="url(#clip0_1627_2078)">
<rect width="356" height="435" rx="32" fill="#252525"/>
<path d="M23.7333 435H0L0 0L23.7333 435Z" fill="url(#paint0_linear_1627_2078)"/>
<path d="M47.4677 435H23.7344L23.7344 0L47.4677 435Z" fill="url(#paint1_linear_1627_2078)"/>
<path d="M71.1982 435H47.4648L47.4648 0L71.1982 435Z" fill="url(#paint2_linear_1627_2078)"/>
<path d="M94.9326 435H71.1992L71.1992 0L94.9326 435Z" fill="url(#paint3_linear_1627_2078)"/>
<path d="M118.667 435H94.9336L94.9336 0L118.667 435Z" fill="url(#paint4_linear_1627_2078)"/>
<path d="M142.401 435H118.668L118.668 0L142.401 435Z" fill="url(#paint5_linear_1627_2078)"/>
<path d="M166.132 435H142.398L142.398 0L166.132 435Z" fill="url(#paint6_linear_1627_2078)"/>
<path d="M189.866 435H166.133L166.133 0L189.866 435Z" fill="url(#paint7_linear_1627_2078)"/>
<path d="M213.601 435H189.867L189.867 0L213.601 435Z" fill="url(#paint8_linear_1627_2078)"/>
<path d="M237.335 435H213.602L213.602 0L237.335 435Z" fill="url(#paint9_linear_1627_2078)"/>
<path d="M261.065 435H237.332L237.332 0L261.065 435Z" fill="url(#paint10_linear_1627_2078)"/>
<path d="M284.8 435H261.066V0L284.8 435Z" fill="url(#paint11_linear_1627_2078)"/>
<path d="M308.534 435H284.801V0L308.534 435Z" fill="url(#paint12_linear_1627_2078)"/>
<path d="M332.268 435H308.535V0L332.268 435Z" fill="url(#paint13_linear_1627_2078)"/>
<path d="M355.999 435H332.266V0L355.999 435Z" fill="url(#paint14_linear_1627_2078)"/>
</g>
<defs>
<linearGradient id="paint0_linear_1627_2078" x1="28.9707" y1="-0.000261031" x2="-24.4532" y2="2.36586" gradientUnits="userSpaceOnUse">
<stop offset="0.152213" stop-opacity="0"/>
<stop offset="1" stop-color="#565656"/>
</linearGradient>
<linearGradient id="paint1_linear_1627_2078" x1="52.7051" y1="-0.000261031" x2="-0.718798" y2="2.36586" gradientUnits="userSpaceOnUse">
<stop offset="0.152213" stop-opacity="0"/>
<stop offset="1" stop-color="#565656"/>
</linearGradient>
<linearGradient id="paint2_linear_1627_2078" x1="76.4356" y1="-0.000261031" x2="23.0117" y2="2.36586" gradientUnits="userSpaceOnUse">
<stop offset="0.152213" stop-opacity="0"/>
<stop offset="1" stop-color="#565656"/>
</linearGradient>
<linearGradient id="paint3_linear_1627_2078" x1="100.17" y1="-0.000261031" x2="46.746" y2="2.36586" gradientUnits="userSpaceOnUse">
<stop offset="0.152213" stop-opacity="0"/>
<stop offset="1" stop-color="#565656"/>
</linearGradient>
<linearGradient id="paint4_linear_1627_2078" x1="123.904" y1="-0.000261031" x2="70.4804" y2="2.36586" gradientUnits="userSpaceOnUse">
<stop offset="0.152213" stop-opacity="0"/>
<stop offset="1" stop-color="#565656"/>
</linearGradient>
<linearGradient id="paint5_linear_1627_2078" x1="147.639" y1="-0.000261031" x2="94.2148" y2="2.36586" gradientUnits="userSpaceOnUse">
<stop offset="0.152213" stop-opacity="0"/>
<stop offset="1" stop-color="#565656"/>
</linearGradient>
<linearGradient id="paint6_linear_1627_2078" x1="171.369" y1="-0.000261031" x2="117.945" y2="2.36586" gradientUnits="userSpaceOnUse">
<stop offset="0.152213" stop-opacity="0"/>
<stop offset="1" stop-color="#565656"/>
</linearGradient>
<linearGradient id="paint7_linear_1627_2078" x1="195.104" y1="-0.000261031" x2="141.68" y2="2.36586" gradientUnits="userSpaceOnUse">
<stop offset="0.152213" stop-opacity="0"/>
<stop offset="1" stop-color="#565656"/>
</linearGradient>
<linearGradient id="paint8_linear_1627_2078" x1="218.838" y1="-0.000261031" x2="165.414" y2="2.36586" gradientUnits="userSpaceOnUse">
<stop offset="0.152213" stop-opacity="0"/>
<stop offset="1" stop-color="#565656"/>
</linearGradient>
<linearGradient id="paint9_linear_1627_2078" x1="242.572" y1="-0.000261031" x2="189.148" y2="2.36586" gradientUnits="userSpaceOnUse">
<stop offset="0.152213" stop-opacity="0"/>
<stop offset="1" stop-color="#565656"/>
</linearGradient>
<linearGradient id="paint10_linear_1627_2078" x1="266.303" y1="-0.000261031" x2="212.879" y2="2.36586" gradientUnits="userSpaceOnUse">
<stop offset="0.152213" stop-opacity="0"/>
<stop offset="1" stop-color="#565656"/>
</linearGradient>
<linearGradient id="paint11_linear_1627_2078" x1="290.037" y1="-0.000261031" x2="236.613" y2="2.36586" gradientUnits="userSpaceOnUse">
<stop offset="0.152213" stop-opacity="0"/>
<stop offset="1" stop-color="#565656"/>
</linearGradient>
<linearGradient id="paint12_linear_1627_2078" x1="313.771" y1="-0.000261031" x2="260.348" y2="2.36586" gradientUnits="userSpaceOnUse">
<stop offset="0.152213" stop-opacity="0"/>
<stop offset="1" stop-color="#565656"/>
</linearGradient>
<linearGradient id="paint13_linear_1627_2078" x1="337.506" y1="-0.000261031" x2="284.082" y2="2.36586" gradientUnits="userSpaceOnUse">
<stop offset="0.152213" stop-opacity="0"/>
<stop offset="1" stop-color="#565656"/>
</linearGradient>
<linearGradient id="paint14_linear_1627_2078" x1="361.236" y1="-0.000261031" x2="307.812" y2="2.36586" gradientUnits="userSpaceOnUse">
<stop offset="0.152213" stop-opacity="0"/>
<stop offset="1" stop-color="#565656"/>
</linearGradient>
<clipPath id="clip0_1627_2078">
<rect width="356" height="435" rx="32" fill="white"/>
</clipPath>
</defs>
</svg>
